<svg width="32" height="32" viewBox="0 0 32 32" fill="none" xmlns="http://www.w3.org/2000/svg">
<path fill-rule="evenodd" clip-rule="evenodd" d="M16 16L16 31H17.1321L17.1321 16L31 16V14.8679L17.1321 14.8679V1H16V14.8679L1 14.8679V16L16 16Z" fill="black"/>
<path d="M16 31H15.6341V31.3659H16V31ZM16 16H16.3659V15.6341H16V16ZM17.1321 31V31.3659H17.4979V31H17.1321ZM17.1321 16V15.6341H16.7662V16H17.1321ZM31 16V16.3659H31.3659V16H31ZM31 14.8679H31.3659V14.5021H31V14.8679ZM17.1321 14.8679H16.7662V15.2338H17.1321V14.8679ZM17.1321 1H17.4979V0.634146H17.1321V1ZM16 1V0.634146H15.6341V1H16ZM16 14.8679V15.2338H16.3659V14.8679H16ZM1 14.8679L1 14.5021H0.634146V14.8679H1ZM1 16H0.634146V16.3659H1L1 16ZM16.3659 31L16.3659 16H15.6341L15.6341 31H16.3659ZM17.1321 30.6341H16V31.3659H17.1321V30.6341ZM16.7662 16L16.7662 31H17.4979L17.4979 16H16.7662ZM31 15.6341L17.1321 15.6341V16.3659L31 16.3659V15.6341ZM30.6341 14.8679V16H31.3659V14.8679H30.6341ZM17.1321 15.2338L31 15.2338V14.5021L17.1321 14.5021V15.2338ZM16.7662 1V14.8679H17.4979V1H16.7662ZM16 1.36585H17.1321V0.634146H16V1.36585ZM16.3659 14.8679V1H15.6341V14.8679H16.3659ZM1 15.2338L16 15.2338V14.5021L1 14.5021L1 15.2338ZM1.36585 16V14.8679H0.634146V16H1.36585ZM16 15.6341L1 15.6341L1 16.3659L16 16.3659V15.6341Z" fill="black"/>
</svg>
