<svg width="84" height="46" viewBox="0 0 84 46" fill="none" xmlns="http://www.w3.org/2000/svg">
<g clip-path="url(#clip0_266_29301)">
<path d="M43.8611 36.6304V45.627H42.6992V36.6304H43.8611Z" fill="black" fill-opacity="0.4"/>
<path d="M46.3184 40.9146C46.3184 40.2479 46.3035 39.7005 46.2637 39.173H47.3061L47.3733 40.2404H47.4007C47.6114 39.8626 47.9214 39.5497 48.2973 39.3357C48.6732 39.1217 49.1005 39.0146 49.5329 39.0262C50.4311 39.0262 51.8169 39.5587 51.8169 41.7755V45.6319H50.6401V41.8999C50.6401 40.8599 50.2544 39.9916 49.1473 39.9916C48.7909 39.9975 48.4457 40.1174 48.1623 40.3336C47.8789 40.5498 47.6722 40.8511 47.5724 41.1933C47.5164 41.3702 47.4895 41.5551 47.4927 41.7407V45.6269H46.3184V40.9146Z" fill="black" fill-opacity="0.4"/>
<path d="M54.1752 45.627V40.0614H53.2695V39.1682H54.1752V38.8596C54.1752 37.954 54.3767 37.118 54.9216 36.6055C55.348 36.2073 55.9131 35.9913 56.4965 36.0034C56.8369 36.0032 57.1744 36.0665 57.4917 36.19L57.3324 37.0981C57.0976 36.9943 56.8427 36.9442 56.586 36.9513C55.5908 36.9513 55.342 37.8321 55.342 38.8198V39.1682H56.902V40.0614H55.342V45.627H54.1752Z" fill="black" fill-opacity="0.4"/>
<path d="M59.5963 37.3519C59.5963 37.5446 59.5198 37.7294 59.3835 37.8656C59.2473 38.0019 59.0625 38.0784 58.8698 38.0784C58.6771 38.0784 58.4924 38.0019 58.3561 37.8656C58.2199 37.7294 58.1433 37.5446 58.1433 37.3519C58.1388 37.2537 58.1546 37.1557 58.1898 37.064C58.2249 36.9722 58.2786 36.8887 58.3475 36.8186C58.4164 36.7485 58.499 36.6935 58.5902 36.6568C58.6813 36.6201 58.7791 36.6027 58.8773 36.6055C58.9751 36.6017 59.0726 36.6186 59.1634 36.6552C59.2542 36.6917 59.3362 36.7471 59.4041 36.8175C59.472 36.888 59.5242 36.9721 59.5574 37.0642C59.5905 37.1563 59.6038 37.2543 59.5963 37.3519ZM58.2901 45.627V39.1582H59.4669V45.627H58.2901Z" fill="black" fill-opacity="0.4"/>
<path d="M61.7437 40.9147C61.7437 40.2479 61.7437 39.7005 61.6914 39.1731H62.7314L62.7986 40.2404H62.8259C63.037 39.8624 63.3475 39.5495 63.7239 39.3354C64.1002 39.1214 64.5279 39.0145 64.9606 39.0263C65.8538 39.0263 67.2421 39.5587 67.2421 41.7755V45.6319H66.0678V41.8999C66.0678 40.8599 65.6822 39.9916 64.575 39.9916C64.2183 39.9974 63.8727 40.1172 63.5889 40.3334C63.3051 40.5496 63.0979 40.8509 62.9976 41.1933C62.9417 41.3703 62.9148 41.5551 62.918 41.7407V45.6269H61.7437V40.9147Z" fill="black" fill-opacity="0.4"/>
<path d="M70.794 37.352C70.7832 37.5377 70.7018 37.7122 70.5665 37.8398C70.4312 37.9674 70.2523 38.0384 70.0663 38.0384C69.8803 38.0384 69.7014 37.9674 69.5661 37.8398C69.4308 37.7122 69.3494 37.5377 69.3385 37.352C69.3343 37.2529 69.3507 37.1539 69.3867 37.0615C69.4228 36.969 69.4776 36.885 69.5478 36.8148C69.6179 36.7447 69.7019 36.6898 69.7944 36.6538C69.8869 36.6178 69.9858 36.6014 70.0849 36.6056C70.1818 36.6037 70.278 36.6219 70.3674 36.6592C70.4569 36.6965 70.5375 36.7521 70.6042 36.8223C70.671 36.8926 70.7223 36.9759 70.755 37.0672C70.7877 37.1584 70.801 37.2554 70.794 37.352ZM69.4853 45.6271V39.1583H70.6622V45.6271H69.4853Z" fill="black" fill-opacity="0.4"/>
<path d="M74.3595 37.312V39.1681H76.0414V40.0613H74.3595V43.5445C74.3595 44.3456 74.5859 44.7885 75.2403 44.7885C75.4692 44.7917 75.6975 44.7649 75.9195 44.7088L75.9717 45.5896C75.638 45.707 75.2853 45.761 74.9317 45.7488C74.6969 45.7622 74.4619 45.7247 74.2429 45.6388C74.0239 45.5529 73.826 45.4207 73.6629 45.2512C73.332 44.9054 73.21 44.3282 73.21 43.5693V40.0613H72.2148V39.1681H73.21V37.618L74.3595 37.312Z" fill="black" fill-opacity="0.4"/>
<path d="M78.2705 42.6117C78.2954 44.1991 79.308 44.8509 80.4849 44.8509C81.0971 44.8698 81.7063 44.757 82.2712 44.52L82.4703 45.361C81.7914 45.6431 81.0605 45.7787 80.3256 45.759C78.3352 45.759 77.1484 44.4528 77.1484 42.5022C77.1484 40.5517 78.2954 39.019 80.1763 39.019C82.2837 39.019 82.846 40.8726 82.846 42.0594C82.8447 42.2433 82.8314 42.427 82.8062 42.6092L78.2705 42.6117ZM81.7114 41.7708C81.7264 41.0244 81.4054 39.86 80.0818 39.86C78.895 39.86 78.375 40.9547 78.2805 41.7708H81.7114Z" fill="black" fill-opacity="0.4"/>
<path d="M40.4935 26.7557C41.9912 27.313 44.4743 27.8281 47.1986 27.8579C53.9063 27.8529 58.2553 24.6185 58.2752 19.6127C58.2901 15.918 55.22 14.3033 52.5105 12.8851C50.4828 11.8177 48.7287 10.8997 48.7661 9.20286C48.7909 8.06833 49.7215 6.62528 52.2841 6.2894C53.0927 6.18491 55.5757 6.02319 58.5414 7.17016L59.4097 3.11222C58.0936 2.67184 56.2351 2.2041 53.9162 2.2041C47.6315 2.2041 43.2178 5.46836 43.183 10.1483C43.1457 13.5171 46.3204 15.4527 48.7138 16.6196C51.2765 17.8686 52.6648 18.8638 52.6474 20.5482C52.625 22.7724 50.229 23.805 47.8629 23.8497H47.5892C44.7554 23.8497 42.8396 23.1506 41.4041 22.5062L40.4935 26.7557ZM77.3234 27.4499H82.0979L76.9278 2.6818H71.7303C70.7476 2.6818 69.8992 3.24657 69.521 4.1547L59.7655 27.4499H65.2665L66.6847 23.5313H76.5048L77.3234 27.4499ZM29.1059 27.4499H34.3879L39.6873 2.6818H34.4028L29.1059 27.4499ZM13.2921 27.4499H19.4101L29.7925 2.6818H24.2667L16.4519 22.444L13.1204 4.75431C12.8716 3.49786 11.9262 2.6818 10.712 2.6818H1.86719C3.38487 3.12715 4.92494 3.68198 6.04952 4.29154C7.31094 4.97574 7.67917 5.69975 8.02749 7.06069L13.2921 27.4499ZM75.6888 19.6226H68.1003L72.9171 6.34912L75.6888 19.6226Z" fill="url(#paint0_linear_266_29301)"/>
<path d="M41.4005 22.5034C42.8361 23.1478 44.7518 23.8469 47.5857 23.8469H47.8594C50.223 23.8046 52.6214 22.7696 52.6438 20.5453C52.6587 18.861 51.2729 17.8658 48.7103 16.6168C46.3168 15.4524 43.1421 13.5142 43.1794 10.1455C43.2167 5.46804 47.6305 2.20129 53.9127 2.20129C56.2315 2.20129 58.09 2.66904 59.4062 3.10941L60.2621 2.62674C58.6299 2.0346 56.5251 1.46484 53.9127 1.46484C47.205 1.46484 42.4828 5.03264 42.443 10.138C42.4007 13.9173 45.8142 16.0246 48.3868 17.2786C51.0316 18.5674 51.9173 19.3884 51.9073 20.5379C51.8899 22.3019 49.7975 23.0756 47.8469 23.108C44.4334 23.1602 42.4529 22.1849 40.873 21.4485L41.4005 22.5034Z" fill="url(#paint1_linear_266_29301)"/>
<path d="M40.4939 26.7557L41.402 22.5012L40.8745 21.4488L39.6455 27.1986L40.4939 26.7557ZM16.7036 19.8067L23.767 1.94531L24.2671 2.68176L16.4523 22.444L16.7036 19.8067ZM13.2925 27.4498L8.02541 7.06065C7.67709 5.69971 7.30886 4.9757 6.04745 4.2915C4.92287 3.68194 3.38279 3.12463 1.86511 2.68176L-0.836861 1.94531L-0.996094 2.70913C1.37497 3.22415 4.06948 4.05514 5.69913 4.93838C6.6993 5.48077 6.98294 5.95349 7.31384 7.24476L12.7228 28.1863L13.2925 27.4498ZM28.1957 28.1863L33.8061 1.94531L34.4007 2.68176L29.1038 27.4498L28.1957 28.1863ZM77.5278 1.94531H71.7308C70.4295 1.94531 69.3298 2.70415 68.8422 3.87103L58.6613 28.1863L59.7684 27.4498L69.5239 4.15466C69.9021 3.24654 70.7505 2.68176 71.7333 2.68176H76.9307L77.5278 1.94531ZM75.6892 19.6226L72.92 6.34908L72.7285 9.03612L74.7835 18.8861L75.6892 19.6226ZM77.3238 27.4498L76.5052 23.5312L75.9081 24.2677L76.7267 28.1863L77.3238 27.4498Z" fill="url(#paint2_linear_266_29301)"/>
<path d="M72.9191 6.34908L68.1024 19.6226L69.1548 18.8861L72.7276 9.03612L72.9191 6.34908ZM60.2627 2.62951L59.0734 8.19269L58.541 7.16763L59.4093 3.1097L60.2627 2.62951ZM83.003 28.1863L77.5244 1.94531L76.9273 2.68176L82.0974 27.4498L83.003 28.1863ZM34.3874 27.4498L39.6869 2.68176L40.595 1.94531L34.982 28.1863L34.3874 27.4498ZM30.8967 1.94531L19.8998 28.1863L19.4121 27.4498L29.7946 2.68176L30.8967 1.94531ZM65.7835 28.1863L67.2017 24.2677L66.6867 23.5312L65.2685 27.4498L65.7835 28.1863Z" fill="url(#paint3_linear_266_29301)"/>
<path d="M76.5051 23.5308H66.685L67.2 24.2672H75.908L76.5051 23.5308ZM65.7843 28.1858H58.6612L59.7683 27.4494H65.2693L65.7843 28.1858ZM83.0038 28.1858H76.7266L77.3237 27.4494H82.0982L83.0038 28.1858ZM12.7227 28.1858H19.9005L19.4129 27.4494H13.2924L12.7227 28.1858ZM29.1062 27.4494H34.3882L34.9828 28.1858H28.1956L29.1062 27.4494Z" fill="url(#paint4_linear_266_29301)"/>
<path d="M1.86604 2.68176H10.7134C11.9275 2.68176 12.873 3.49783 13.1218 4.75427L16.4532 22.444L16.7045 19.8067L13.8458 4.61992C13.5124 2.92807 12.1863 1.94531 10.7159 1.94531H-0.835938L1.86604 2.68176ZM39.6439 27.201C41.2288 27.93 44.1546 28.562 47.195 28.5943C54.3231 28.5943 58.9856 25.0738 59.013 19.6176C59.0404 12.6935 49.4342 12.3128 49.5014 9.21775C49.5188 8.27479 50.417 7.27711 52.3775 7.01835C53.3528 6.89395 56.0299 6.79443 59.0727 8.19269L58.5403 7.16763C55.5746 6.02066 53.094 6.18238 52.283 6.28688C49.7228 6.62525 48.7898 8.0658 48.7649 9.20033C48.7276 10.8996 50.4816 11.8177 52.5094 12.8826C55.2188 14.3032 58.289 15.9155 58.2741 19.6101C58.2517 24.616 53.9026 27.8504 47.1975 27.8554C44.4731 27.828 41.9901 27.313 40.4923 26.7532L39.6439 27.201Z" fill="url(#paint5_linear_266_29301)"/>
<path d="M74.7816 18.8861H69.1538L68.1013 19.6226H75.6897L74.7816 18.8861ZM30.8982 1.94531H23.7676L24.2677 2.68176H29.7935L30.8982 1.94531ZM39.6883 2.68176H34.4038L33.8092 1.94531H40.5964L39.6883 2.68176Z" fill="url(#paint6_linear_266_29301)"/>
</g>
<defs>
<linearGradient id="paint0_linear_266_29301" x1="41.9829" y1="2.20292" x2="41.9829" y2="27.8575" gradientUnits="userSpaceOnUse">
<stop offset="0.0045263" stop-color="#AAACB3"/>
<stop offset="0.0046263" stop-color="#A0A1A6"/>
<stop offset="0.1228" stop-color="#B4B5B8"/>
<stop offset="0.2351" stop-color="#CBCBCC"/>
<stop offset="0.3386" stop-color="#DBDBDB"/>
<stop offset="0.4301" stop-color="#E6E6E6"/>
<stop offset="0.5" stop-color="#EBEBEB"/>
<stop offset="0.602" stop-color="#E6E6E6"/>
<stop offset="0.6839" stop-color="#E9E9E9"/>
<stop offset="0.759" stop-color="#E0E0E0"/>
<stop offset="0.8298" stop-color="#D8D8D9"/>
<stop offset="0.8977" stop-color="#BDBEBF"/>
<stop offset="0.9625" stop-color="#A2A3A6"/>
<stop offset="1" stop-color="#A1A3A6"/>
</linearGradient>
<linearGradient id="paint1_linear_266_29301" x1="40.8728" y1="12.6558" x2="60.2616" y2="12.6558" gradientUnits="userSpaceOnUse">
<stop stop-color="#F1F2F2"/>
<stop offset="0.5" stop-color="#BCBEC0"/>
<stop offset="1" stop-color="#DCDDDE"/>
</linearGradient>
<linearGradient id="paint2_linear_266_29301" x1="38.2652" y1="1.94453" x2="38.2652" y2="28.1853" gradientUnits="userSpaceOnUse">
<stop stop-color="#E5E6E6"/>
<stop offset="0.5" stop-color="#C5C8CC"/>
<stop offset="1" stop-color="#DCDDDE"/>
</linearGradient>
<linearGradient id="paint3_linear_266_29301" x1="51.2073" y1="28.1853" x2="51.2073" y2="1.94486" gradientUnits="userSpaceOnUse">
<stop stop-color="#C6C8CC"/>
<stop offset="0.0342" stop-color="#AEAFB3"/>
<stop offset="0.1131" stop-color="#AFB0B3"/>
<stop offset="0.1962" stop-color="#A9AAAC"/>
<stop offset="0.2842" stop-color="#BABBBD"/>
<stop offset="0.3803" stop-color="#C4C5C7"/>
<stop offset="0.5" stop-color="#C7C8CA"/>
<stop offset="0.6197" stop-color="#C4C5C7"/>
<stop offset="0.7158" stop-color="#B0B1B3"/>
<stop offset="0.8038" stop-color="#AFB0B3"/>
<stop offset="0.8869" stop-color="#AFB0B3"/>
<stop offset="0.9658" stop-color="#AEAFB3"/>
<stop offset="1" stop-color="#ADAFB3"/>
</linearGradient>
<linearGradient id="paint4_linear_266_29301" x1="12.7227" y1="25.857" x2="83.0042" y2="25.857" gradientUnits="userSpaceOnUse">
<stop stop-color="#E5E6E6"/>
<stop offset="0.5" stop-color="#E6E7E8"/>
<stop offset="1" stop-color="#B5B7B9"/>
</linearGradient>
<linearGradient id="paint5_linear_266_29301" x1="29.118" y1="1.94483" x2="29.118" y2="28.5935" gradientUnits="userSpaceOnUse">
<stop stop-color="#B9BBBF"/>
<stop offset="0.1293" stop-color="#ADAFB3"/>
<stop offset="0.2332" stop-color="#ADAFB3"/>
<stop offset="0.3282" stop-color="#B1B3B5"/>
<stop offset="0.4174" stop-color="#C9CACC"/>
<stop offset="0.5" stop-color="#E6E7E8"/>
<stop offset="1" stop-color="#ADAFB3"/>
</linearGradient>
<linearGradient id="paint6_linear_266_29301" x1="23.7673" y1="10.7838" x2="75.6907" y2="10.7838" gradientUnits="userSpaceOnUse">
<stop stop-color="#E5E6E6"/>
<stop offset="0.5" stop-color="#E6E7E8"/>
<stop offset="1" stop-color="#DCDDDE"/>
</linearGradient>
<clipPath id="clip0_266_29301">
<rect width="84" height="44.6486" fill="white" transform="translate(-0.755859 0.810547)"/>
</clipPath>
</defs>
</svg>
